Coordinates
version=1
nRows=29
nColumns=24
inDegrees=yes

Units are S.I. units (second, meters, Newtons, ...)
Angles are in degrees.

endheader
time	pelvis_tilt	pelvis_list	pelvis_rotation	pelvis_tx	pelvis_ty	pelvis_tz	hip_flexion_r	hip_adduction_r	hip_rotation_r	knee_angle_r	ankle_angle_r	subtalar_angle_r	mtp_angle_r	hip_flexion_l	hip_adduction_l	hip_rotation_l	knee_angle_l	ankle_angle_l	subtalar_angle_l	mtp_angle_l	lumbar_extension	lumbar_bending	lumbar_rotation
      0.45800000	     -9.41916267	     -0.51428527	     -0.95383822	     -0.70838390	      1.03580174	      0.30047858	     35.08986557	      1.27648203	     -4.45379664	    -16.08723804	     10.14156225	      0.19829569	      7.27014930	     -3.99691066	     -0.83927015	     -2.89314219	    -11.42791476	     21.02647789	      8.82756970	      6.53892683	     -3.17327536	      1.09269667	     -2.75758655
      0.46216667	     -9.39921461	     -0.46209080	     -0.86914334	     -0.70239165	      1.03458896	      0.30076101	     35.09920890	      1.23401507	     -4.11194152	    -15.97766060	     10.01315457	     -0.04486448	      7.25746133	     -4.08075100	     -0.83935897	     -2.87202586	    -12.05730891	     21.19460506	      9.03620840	      6.58733186	     -3.17196296	      1.08315393	     -2.77843334
      0.46633333	     -9.35379134	     -0.43384700	     -0.78820917	     -0.69634387	      1.03343154	      0.30106227	     35.08232193	      1.21498179	     -3.80423432	    -15.97050914	      9.87450010	     -0.27017076	      7.24399163	     -4.14316992	     -0.88231819	     -2.96894695	    -12.80296572	     21.39516630	      9.38159726	      6.69054151	     -3.17587244	      1.09370104	     -2.78624600
      0.47050000	     -9.27572155	     -0.40816896	     -0.70542979	     -0.69028228	      1.03236330	      0.30134173	     35.04395225	      1.19555063	     -3.50985664	    -16.08977797	      9.73248244	     -0.51331246	      7.23293171	     -4.22308150	     -0.92739257	     -3.02638599	    -13.58126644	     21.56956517	      9.73332034	      6.82749848	     -3.23870743	      1.12494075	     -2.78963265
      0.47466667	     -9.21468806	     -0.39704542	     -0.62174024	     -0.68416373	      1.03129242	      0.30162940	     35.02993290	      1.18949345	     -3.25915677	    -16.31711275	      9.57003090	     -0.76400418	      7.22187817	     -4.24153406	     -0.99962924	     -3.13331230	    -14.45817273	     21.71075480	     10.08852073	      7.01917049	     -3.25340901	      1.16629098	     -2.78880922
      0.47883333	     -9.10729396	     -0.39788266	     -0.54176756	     -0.67802396	      1.03032808	      0.30192927	     34.97172309	      1.19859708	     -3.01869014	    -16.64288442	      9.38723652	     -1.04165821	      7.21130796	     -4.28783576	     -1.09034497	     -3.24673809	    -15.38243163	     21.83180333	     10.48509410	      7.26647561	     -3.33647761	      1.23371633	     -2.78529388
      0.48300000	     -8.99229152	     -0.40917659	     -0.46074256	     -0.67184983	      1.02941195	      0.30221944	     34.91342055	      1.21535929	     -2.81247964	    -17.06952305	      9.18828097	     -1.32147735	      7.20070834	     -4.30866402	     -1.19923515	     -3.37037143	    -16.37660040	     21.92052993	     10.89032765	      7.58221842	     -3.41826553	      1.31929492	     -2.77629889
      0.48716667	     -8.88206571	     -0.42226720	     -0.38215200	     -0.66564791	      1.02851221	      0.30253836	     34.86737196	      1.23833519	     -2.62186575	    -17.58469414	      8.97572680	     -1.61889544	      7.18953350	     -4.29047289	     -1.31896159	     -3.50528601	    -17.44227420	     21.96523291	     11.30390623	      7.95457610	     -3.48640509	      1.40417015	     -2.76374390
      0.49133333	     -8.74000469	     -0.44768680	     -0.30350800	     -0.65942086	      1.02769869	      0.30285786	     34.79101780	      1.27227820	     -2.46391143	    -18.17630467	      8.75633230	     -1.90792278	      7.17636317	     -4.27489453	     -1.46036834	     -3.65686322	    -18.57168154	     21.96950630	     11.73112812	      8.37575427	     -3.59307071	      1.50705318	     -2.74375663
      0.49550000	     -8.61136969	     -0.47285789	     -0.23032827	     -0.65317359	      1.02687880	      0.30320812	     34.73845902	      1.31078811	     -2.32073556	    -18.84638953	      8.52834909	     -2.20432624	      7.15856302	     -4.20922407	     -1.61133837	     -3.82237181	    -19.77365836	     21.92332148	     12.17561036	      8.88843002	     -3.67635193	      1.61774097	     -2.72194796
      0.49966667	     -8.43615152	     -0.49073044	     -0.15590065	     -0.64692466	      1.02618334	      0.30354986	     34.64983985	      1.33631023	     -2.22845356	    -19.59764448	      8.34627890	     -2.43348750	      7.02090023	     -4.17489772	     -1.75122473	     -3.92899686	    -20.99104962	     21.70264610	     12.46541450	     13.32795455	     -3.81934656	      1.70795413	     -2.65240497
      0.50383333	     -8.25964997	     -0.54078592	     -0.07831773	     -0.64065127	      1.02553012	      0.30391490	     34.53994164	      1.39834693	     -2.12811930	    -20.34892370	      8.08848621	     -2.74413687	      7.00723970	     -4.09210730	     -1.94419421	     -4.08751763	    -22.31807602	     21.55195204	     12.86991876	     13.42205276	     -3.95664528	      1.85489840	     -2.66966321
      0.50800000	     -8.08492485	     -0.58768278	     -0.00826250	     -0.63436964	      1.02489049	      0.30431402	     34.44318333	      1.46068229	     -2.05362761	    -21.16073440	      7.87663008	     -3.01747574	      6.98687115	     -3.97119883	     -2.14566631	     -4.26999810	    -23.71448506	     21.33707348	     13.30233222	     13.59514038	     -4.08491350	      1.99006766	     -2.63007736
      0.51216667	     -7.89939501	     -0.64223583	      0.06019750	     -0.62808891	      1.02430735	      0.30473965	     34.33192538	      1.53305193	     -1.99228184	    -21.99391329	      7.67474965	     -3.28989275	      6.95697963	     -3.82533689	     -2.36618594	     -4.45766083	    -25.17352265	     21.04947862	     13.72069778	     13.84309032	     -4.22913702	      2.13396356	     -2.59296399
      0.51633333	     -7.69460239	     -0.70942041	      0.12216194	     -0.62180220	      1.02378577	      0.30518855	     34.19620982	      1.62173287	     -1.94553787	    -22.84502262	      7.49776787	     -3.54471516	      6.91492504	     -3.66842520	     -2.61053422	     -4.65592003	    -26.68650688	     20.68989695	     14.13169446	     14.18042975	     -4.39737659	      2.30017391	     -2.54845429
      0.52050000	     -7.50176915	     -0.76753863	      0.19391147	     -0.61552467	      1.02329981	      0.30563626	     34.06650489	      1.70033130	     -1.90127828	    -23.70370505	      7.36268588	     -3.83026342	      6.38180257	     -3.46883170	     -2.84430332	     -4.79340425	    -28.22608395	     20.15620017	     14.37509090	     18.51051609	     -4.54539358	      2.44864704	     -2.47465880
      0.52466667	     -7.29615138	     -0.83065787	      0.25741387	     -0.60926736	      1.02284375	      0.30610796	     33.92551189	      1.78102782	     -1.90214939	    -24.57730172	      7.26895836	     -3.97243232	      6.36851843	     -3.24147064	     -3.09864714	     -4.96927152	    -29.84949619	     19.63556504	     14.71798350	     18.58458938	     -4.70582909	      2.60643374	     -2.45217958
      0.52883333	     -7.09918740	     -0.90620835	      0.31727953	     -0.60301247	      1.02241848	      0.30660775	     33.77703720	      1.88316930	     -1.88445729	    -25.42845817	      7.19238414	     -4.18939990	      6.33944499	     -2.97265204	     -3.37455867	     -5.13762610	    -31.51981786	     19.05332478	     15.01935578	     18.73451651	     -4.85702050	      2.78162052	     -2.40224786
      0.53300000	     -6.89654501	     -0.99310396	      0.37847355	     -0.59677687	      1.02204326	      0.30711272	     33.60701664	      1.99686368	     -1.88201797	    -26.25650041	      7.16229504	     -4.37755324	      6.29681984	     -2.67855899	     -3.66814271	     -5.28877194	    -33.23589055	     18.40831662	     15.27197884	     18.95005114	     -5.01462131	      2.96813036	     -2.34546355
      0.53716667	     -6.72834106	     -1.07260222	      0.44049354	     -0.59055581	      1.02165251	      0.30762537	     33.46320749	      2.10261819	     -1.88830074	    -27.06996181	      7.18105851	     -4.54230938	      6.23712714	     -2.31525497	     -3.95650222	     -5.41569454	    -34.98747644	     17.68341316	     15.45777232	     19.23828608	     -5.12513011	      3.14509760	     -2.29077711
      0.54133333	     -6.51061909	     -1.12380239	      0.50279941	     -0.58438897	      1.02140149	      0.30810301	     33.26101688	      2.17565073	     -1.91144458	    -27.88003432	      7.29362654	     -4.67395805	      6.22031075	     -1.99218190	     -4.19187856	     -5.45480635	    -36.72607371	     16.83519722	     15.43998888	     19.31833275	     -5.30687627	      3.29423777	     -2.23824546
      0.54550000	     -6.33557798	     -1.24093790	      0.56741471	     -0.57822796	      1.02111944	      0.30864019	     33.06175166	      2.32571341	     -1.92085844	    -28.60349971	      7.40617057	     -4.80555947	      5.13912638	     -1.57578308	     -4.53755149	     -5.56992664	    -38.53744294	     15.94989259	     15.54225711	     23.78295361	     -5.44239370	      3.51060966	     -2.16387774
      0.54966667	     -6.15626738	     -1.33146038	      0.62360938	     -0.57209694	      1.02089477	      0.30914400	     32.84886765	      2.44600046	     -1.94471952	    -29.31272749	      7.60391348	     -4.89005816	      5.13716330	     -1.15343330	     -4.82962791	     -5.61384278	    -40.34747800	     15.06411946	     15.50096100	     23.78757050	     -5.57572810	      3.70454029	     -2.10229046
      0.55383333	     -6.00176455	     -1.42884021	      0.68298116	     -0.56600422	      1.02067254	      0.30965665	     32.64233583	      2.57188547	     -1.98423196	    -29.98092301	      7.82952711	     -4.96731345	      5.12666971	     -0.67474484	     -5.13506979	     -5.65416746	    -42.18346256	     14.16616510	     15.43244672	     23.80261680	     -5.68546128	      3.89978726	     -2.03539980
      0.55800000	     -5.82500133	     -1.51965656	      0.73832649	     -0.55995987	      1.02054307	      0.31015063	     32.39501304	      2.69123839	     -2.03167623	    -30.61619818	      8.10817058	     -5.05594801	      5.11898696	     -0.20236385	     -5.42875066	     -5.68343764	    -44.01446551	     13.24439915	     15.30018900	     23.80729355	     -5.82058623	      4.09408934	     -1.96771679
      0.56216667	     -5.71113691	     -1.64213013	      0.80329355	     -0.55391454	      1.02038377	      0.31061949	     32.17961517	      2.83527647	     -2.09887329	    -31.18168533	      8.40122120	     -5.07639514	      5.08740858	      0.36021907	     -5.74765656	     -5.66338051	    -45.85774839	     12.34517592	     15.07367141	     23.82076256	     -5.87453639	      4.32126253	     -1.88842207
      0.56633333	     -5.58687414	     -1.74768243	      0.86264772	     -0.54793116	      1.02028933	      0.31109019	     31.93773624	      2.96508139	     -2.16095425	    -31.71536845	      8.75372324	     -5.09824162	      5.05007186	      0.92330639	     -6.03951599	     -5.62689997	    -47.68136651	     11.45997174	     14.78223056	     23.81414037	     -5.95077011	      4.52668392	     -1.81314786
      0.57050000	     -5.46577669	     -1.85971440	      0.92699756	     -0.54198817	      1.02027493	      0.31152994	     31.67231934	      3.09715005	     -2.23447443	    -32.19365084	      9.13252918	     -5.10553891	      5.00856720	      1.50597236	     -6.32823809	     -5.56606319	    -49.48731765	     10.59614257	     14.41582417	     23.78193442	     -6.02647443	      4.73783570	     -1.73474560
      0.57466667	     -5.37538603	     -1.96560793	      0.99266235	     -0.53607618	      1.02027984	      0.31194912	     31.41926563	      3.21919255	     -2.31547749	    -32.63058237	      9.53857139	     -5.08476997	      4.95207381	      2.13369475	     -6.59706551	     -5.47925916	    -51.26932370	      9.77838662	     13.97110897	     23.71009882	     -6.06551931	      4.94462530	     -1.65572522
